PathFileType	4	(X/Y/Z)	output.trc
DataRate	CameraRate	NumFrames	NumMarkers	Units	OrigDataRate	OrigDataStartFrame	OrigNumFrames
50	50	7	18	mm	50	1	1
Frame#	Time	K4ABT_JOINT_PELVIS			K4ABT_JOINT_SPINE_NAVEL			K4ABT_JOINT_SPINE_CHEST			K4ABT_JOINT_NECK			K4ABT_JOINT_CLAVICLE_LEFT			K4ABT_JOINT_SHOULDER_LEFT			K4ABT_JOINT_ELBOW_LEFT			K4ABT_JOINT_WRIST_LEFT			K4ABT_JOINT_HAND_LEFT			K4ABT_JOINT_HANDTIP_LEFT			K4ABT_JOINT_THUMB_LEFT			K4ABT_JOINT_CLAVICLE_RIGHT			K4ABT_JOINT_SHOULDER_RIGHT			K4ABT_JOINT_ELBOW_RIGHT			K4ABT_JOINT_WRIST_RIGHT			K4ABT_JOINT_HAND_RIGHT			K4ABT_JOINT_HANDTIP_RIGHT			K4ABT_JOINT_THUMB_RIGHT		
		X1	Y1	Z1	X2	Y2	Z2	X3	Y3	Z3	X4	Y4	Z4	X5	Y5	Z5	X6	Y6	Z6	X7	Y7	Z7	X8	Y8	Z8	X9	Y9	Z9	X10	Y10	Z10	X11	Y11	Z11	X12	Y12	Z12	X13	Y13	Z13	X14	Y14	Z14	X15	Y15	Z15	X16	Y16	Z16	X17	Y17	Z17	X18	Y18	Z18
0	300222.000000	42.940250	-194.913773	2050.085449	45.103676	-378.878174	2024.109131	47.902889	-527.390137	2023.503784	50.182407	-753.365784	2030.831055	84.909195	-715.951843	2030.620117	231.595245	-694.998230	2045.078491	314.746429	-429.970459	2120.406250	337.323334	-218.568848	2005.745850	314.245605	-123.218040	2026.547485	222.173477	-85.475784	1973.991333	249.596451	-114.447243	2025.088501	14.822928	-716.030884	2030.805786	-118.443924	-686.797607	2042.809937	-193.270599	-411.037048	2108.755615	-222.554871	-185.910873	2017.681152	-160.153381	-97.807892	2019.510498	-104.321449	-6.687418	1990.959106	-126.130699	-98.839882	2019.236572
1	333522.000000	44.351700	-192.810272	2052.518799	46.971416	-377.465790	2026.653809	50.325947	-526.475464	2023.590332	53.099667	-753.301514	2029.760132	87.874763	-715.679260	2029.643311	235.020126	-693.993713	2043.931030	321.018250	-431.345856	2127.902100	332.073700	-225.508148	2000.307129	327.380096	-132.711807	2038.998901	238.997101	-84.647522	1987.673462	252.828354	-109.510277	2019.342163	17.535147	-715.904785	2030.030518	-115.217728	-682.942383	2043.645630	-187.657959	-404.148743	2104.010010	-212.464310	-183.689926	1998.882812	-159.175812	-90.285721	2012.308594	-105.284714	5.076036	1994.246704	-128.478729	-86.472321	2023.541504
2	366888.000000	48.365208	-191.531448	2052.610840	51.106819	-376.098022	2025.874146	54.639633	-525.139709	2023.157593	55.837528	-752.048157	2028.372070	90.885506	-714.666626	2028.166504	238.300018	-693.940674	2041.370361	322.041229	-430.822876	2126.340576	337.444641	-226.651520	1996.449219	345.364044	-160.216309	2071.668213	271.806580	-86.786453	2027.414062	261.155884	-110.838234	2020.710938	20.536659	-714.393555	2029.046753	-111.677826	-679.288757	2042.817627	-178.386566	-400.606598	2110.180176	-205.448898	-177.012436	2012.372925	-154.605881	-81.767891	2021.982666	-111.135323	18.331125	2001.496094	-128.719009	-75.505081	2020.317139
3	400211.000000	50.634296	-190.316788	2053.541260	53.704662	-374.828827	2026.404175	57.770840	-523.855164	2023.236328	56.471481	-750.778320	2028.254517	91.935822	-713.792908	2027.624146	239.400681	-692.438904	2039.252808	324.193481	-429.849274	2124.858887	340.049988	-223.245346	1998.906494	343.989532	-157.541580	2075.081787	274.868256	-85.482872	2022.241821	262.213043	-110.479958	2025.768066	21.608484	-712.726440	2029.416992	-110.342026	-679.274353	2048.768799	-174.777267	-398.658966	2110.110840	-203.024979	-173.397415	2016.526489	-145.076736	-81.934517	2021.678955	-102.649223	18.495329	2000.604370	-117.322250	-76.645554	2017.921265
4	433555.000000	57.048325	-186.942627	2053.848633	59.182056	-371.533569	2026.002197	62.611446	-520.698181	2022.258545	61.359856	-747.880798	2023.352417	96.848007	-710.848450	2023.432251	244.437851	-689.770630	2035.707764	325.789764	-425.730652	2121.078125	342.850250	-215.302567	2001.342773	346.603424	-152.157852	2079.779297	274.418091	-85.643295	2023.649170	259.228912	-105.503105	2013.395264	26.453049	-709.828003	2025.104736	-105.788078	-676.851746	2044.175659	-169.118973	-398.412720	2116.827148	-192.763031	-179.304840	2008.010620	-139.074203	-85.614685	2018.548218	-94.232224	14.234699	1999.258301	-102.563721	-84.302734	2015.661255
5	466888.000000	64.614494	-186.423615	2052.855957	64.153023	-371.130768	2025.600708	65.153358	-520.338989	2021.652954	60.894390	-747.483582	2024.937134	96.868103	-710.934631	2023.784424	244.798477	-690.321289	2032.342896	325.738556	-426.609406	2119.190186	346.649109	-214.806854	2002.484985	356.956055	-153.518570	2081.812500	284.112335	-86.817924	2026.744385	264.085266	-106.582710	2012.057983	26.550608	-708.942139	2027.193115	-105.863747	-678.408813	2049.016357	-166.214111	-398.490784	2118.557617	-193.609940	-174.926208	2020.134644	-131.591583	-85.906036	2018.543213	-82.934883	9.498879	1988.788330	-87.937744	-94.074196	2005.796875
6	500222.000000	66.875725	-186.730194	2053.802490	66.304192	-371.423645	2026.233887	67.255859	-520.574463	2019.859497	65.371986	-747.732788	2025.959717	100.959885	-710.829712	2023.997803	248.933105	-689.539978	2030.329468	328.528656	-426.257385	2119.849854	349.708069	-214.828430	2002.429199	361.407074	-153.157471	2081.288574	293.667938	-86.388237	2020.088379	269.389679	-106.861885	2011.353516	30.650694	-709.511719	2028.091919	-101.882698	-679.560425	2050.150391	-163.099854	-399.579590	2118.895996	-185.895981	-184.113480	2002.729614	-135.459763	-88.584106	2013.115112	-87.211952	9.295948	1991.880493	-90.489494	-93.203384	2013.243652
